<svg width="110" height="50" viewBox="0 0 110 50" fill="none" xmlns="http://www.w3.org/2000/svg">
<path d="M48.36 44V32.64H52.296C53.512 32.64 54.5253 32.896 55.336 33.408C56.1573 33.9093 56.7707 34.592 57.176 35.456C57.5813 36.3093 57.784 37.2587 57.784 38.304C57.784 39.456 57.56 40.4587 57.112 41.312C56.664 42.1653 56.0293 42.8267 55.208 43.296C54.3867 43.7653 53.416 44 52.296 44H48.36ZM56.328 38.304C56.328 37.4507 56.168 36.6933 55.848 36.032C55.5387 35.3707 55.0853 34.8533 54.488 34.48C53.8907 34.1067 53.16 33.92 52.296 33.92H49.8V42.72H52.296C53.1707 42.72 53.9067 42.528 54.504 42.144C55.1013 41.7493 55.5547 41.2213 55.864 40.56C56.1733 39.888 56.328 39.136 56.328 38.304ZM63.6051 44.16C62.9758 44.16 62.3998 44.048 61.8771 43.824C61.3651 43.5893 60.9171 43.2747 60.5331 42.88C60.1598 42.4747 59.8665 42.0107 59.6531 41.488C59.4505 40.9653 59.3491 40.4107 59.3491 39.824C59.3491 39.0347 59.5305 38.3147 59.8931 37.664C60.2558 37.0133 60.7571 36.4907 61.3971 36.096C62.0478 35.7013 62.7891 35.504 63.6211 35.504C64.4638 35.504 65.1945 35.7067 65.8131 36.112C66.4425 36.5067 66.9278 37.0293 67.2691 37.68C67.6211 38.32 67.7971 39.0133 67.7971 39.76C67.7971 39.8667 67.7918 39.9733 67.7811 40.08C67.7811 40.176 67.7758 40.2507 67.7651 40.304H60.8371C60.8798 40.848 61.0291 41.3333 61.2851 41.76C61.5518 42.176 61.8931 42.5067 62.3091 42.752C62.7251 42.9867 63.1731 43.104 63.6531 43.104C64.1651 43.104 64.6451 42.976 65.0931 42.72C65.5518 42.464 65.8665 42.128 66.0371 41.712L67.2531 42.048C67.0718 42.4533 66.7998 42.816 66.4371 43.136C66.0851 43.456 65.6638 43.7067 65.1731 43.888C64.6931 44.0693 64.1705 44.16 63.6051 44.16ZM60.7891 39.328H66.4851C66.4425 38.784 66.2878 38.304 66.0211 37.888C65.7545 37.472 65.4131 37.1467 64.9971 36.912C64.5811 36.6773 64.1225 36.56 63.6211 36.56C63.1305 36.56 62.6771 36.6773 62.2611 36.912C61.8451 37.1467 61.5038 37.472 61.2371 37.888C60.9811 38.304 60.8318 38.784 60.7891 39.328ZM69.0262 41.584C69.0262 41.0507 69.1756 40.592 69.4742 40.208C69.7836 39.8133 70.2049 39.5093 70.7382 39.296C71.2716 39.0827 71.8902 38.976 72.5942 38.976C72.9676 38.976 73.3622 39.008 73.7782 39.072C74.1942 39.1253 74.5622 39.2107 74.8822 39.328V38.72C74.8822 38.08 74.6902 37.5787 74.3062 37.216C73.9222 36.8427 73.3782 36.656 72.6742 36.656C72.2156 36.656 71.7729 36.7413 71.3462 36.912C70.9302 37.072 70.4876 37.3067 70.0182 37.616L69.5062 36.624C70.0502 36.2507 70.5942 35.9733 71.1382 35.792C71.6822 35.6 72.2476 35.504 72.8342 35.504C73.9009 35.504 74.7436 35.8027 75.3622 36.4C75.9809 36.9867 76.2902 37.808 76.2902 38.864V42.4C76.2902 42.5707 76.3222 42.6987 76.3862 42.784C76.4609 42.8587 76.5782 42.9013 76.7382 42.912V44C76.5996 44.0213 76.4769 44.0373 76.3702 44.048C76.2742 44.0587 76.1942 44.064 76.1302 44.064C75.7996 44.064 75.5489 43.9733 75.3782 43.792C75.2182 43.6107 75.1276 43.4187 75.1062 43.216L75.0742 42.688C74.7116 43.1573 74.2369 43.52 73.6502 43.776C73.0636 44.032 72.4822 44.16 71.9062 44.16C71.3516 44.16 70.8556 44.048 70.4182 43.824C69.9809 43.5893 69.6396 43.28 69.3942 42.896C69.1489 42.5013 69.0262 42.064 69.0262 41.584ZM74.4662 42.176C74.5942 42.0267 74.6956 41.8773 74.7702 41.728C74.8449 41.568 74.8822 41.4347 74.8822 41.328V40.288C74.5516 40.16 74.2049 40.064 73.8422 40C73.4796 39.9253 73.1222 39.888 72.7702 39.888C72.0556 39.888 71.4742 40.032 71.0262 40.32C70.5889 40.5973 70.3702 40.9813 70.3702 41.472C70.3702 41.7387 70.4396 42 70.5782 42.256C70.7276 42.5013 70.9409 42.704 71.2182 42.864C71.5062 43.024 71.8582 43.104 72.2742 43.104C72.7116 43.104 73.1276 43.0187 73.5222 42.848C73.9169 42.6667 74.2316 42.4427 74.4662 42.176ZM78.8936 32.32H80.3016V41.84C80.3016 42.2987 80.3656 42.5813 80.4936 42.688C80.6216 42.7947 80.7763 42.848 80.9576 42.848C81.1816 42.848 81.395 42.8267 81.5976 42.784C81.8003 42.7307 81.971 42.6773 82.1096 42.624L82.3336 43.776C82.099 43.872 81.8216 43.952 81.5016 44.016C81.1816 44.08 80.899 44.112 80.6536 44.112C80.1096 44.112 79.6776 43.9573 79.3576 43.648C79.0483 43.3387 78.8936 42.9067 78.8936 42.352V32.32ZM87.4557 44.16C86.8264 44.16 86.2504 44.048 85.7277 43.824C85.2157 43.5893 84.7677 43.2747 84.3837 42.88C84.0104 42.4747 83.7171 42.0107 83.5037 41.488C83.3011 40.9653 83.1997 40.4107 83.1997 39.824C83.1997 39.0347 83.3811 38.3147 83.7437 37.664C84.1064 37.0133 84.6077 36.4907 85.2477 36.096C85.8984 35.7013 86.6397 35.504 87.4717 35.504C88.3144 35.504 89.0451 35.7067 89.6637 36.112C90.2931 36.5067 90.7784 37.0293 91.1197 37.68C91.4717 38.32 91.6477 39.0133 91.6477 39.76C91.6477 39.8667 91.6424 39.9733 91.6317 40.08C91.6317 40.176 91.6264 40.2507 91.6157 40.304H84.6877C84.7304 40.848 84.8797 41.3333 85.1357 41.76C85.4024 42.176 85.7437 42.5067 86.1597 42.752C86.5757 42.9867 87.0237 43.104 87.5037 43.104C88.0157 43.104 88.4957 42.976 88.9437 42.72C89.4024 42.464 89.7171 42.128 89.8877 41.712L91.1037 42.048C90.9224 42.4533 90.6504 42.816 90.2877 43.136C89.9357 43.456 89.5144 43.7067 89.0237 43.888C88.5437 44.0693 88.0211 44.16 87.4557 44.16ZM84.6397 39.328H90.3357C90.2931 38.784 90.1384 38.304 89.8717 37.888C89.6051 37.472 89.2637 37.1467 88.8477 36.912C88.4317 36.6773 87.9731 36.56 87.4717 36.56C86.9811 36.56 86.5277 36.6773 86.1117 36.912C85.6957 37.1467 85.3544 37.472 85.0877 37.888C84.8317 38.304 84.6824 38.784 84.6397 39.328ZM97.9489 36.88C97.2449 36.8907 96.6209 37.072 96.0769 37.424C95.5435 37.7653 95.1649 38.24 94.9409 38.848V44H93.5329V35.648H94.8449V37.584C95.1329 37.008 95.5115 36.544 95.9809 36.192C96.4609 35.8293 96.9622 35.6267 97.4849 35.584C97.5915 35.584 97.6822 35.584 97.7569 35.584C97.8315 35.584 97.8955 35.5893 97.9489 35.6V36.88Z" fill="#2D2D2D"/>
<path d="M51.5 9.8H55.86L60.38 24H56.42L55.56 21.22H51.78L50.94 24H46.96L51.5 9.8ZM54.94 18.62L53.68 13.62L52.36 18.62H54.94ZM68.7798 24.2C68.0198 24.2 67.3598 24.0533 66.7998 23.76C66.2398 23.4533 65.8065 23.0133 65.4998 22.44V28.26H61.6998V13.48H64.9998V15.06C65.3732 14.4867 65.8332 14.0467 66.3798 13.74C66.9398 13.4333 67.6132 13.28 68.3998 13.28C69.1065 13.28 69.7532 13.4133 70.3398 13.68C70.9265 13.9467 71.4398 14.3267 71.8798 14.82C72.3198 15.3133 72.6598 15.8867 72.8998 16.54C73.1398 17.1933 73.2598 17.9133 73.2598 18.7C73.2598 19.7533 73.0665 20.6933 72.6798 21.52C72.2932 22.3467 71.7598 23 71.0798 23.48C70.4132 23.96 69.6465 24.2 68.7798 24.2ZM67.4598 21C67.7398 21 67.9932 20.94 68.2198 20.82C68.4598 20.7 68.6665 20.5333 68.8398 20.32C69.0132 20.1067 69.1465 19.86 69.2398 19.58C69.3332 19.3 69.3798 19 69.3798 18.68C69.3798 18.3467 69.3265 18.0467 69.2198 17.78C69.1265 17.5133 68.9865 17.2867 68.7998 17.1C68.6132 16.9 68.3932 16.7467 68.1398 16.64C67.8865 16.5333 67.6065 16.48 67.2998 16.48C67.1265 16.48 66.9532 16.5067 66.7798 16.56C66.6198 16.6 66.4665 16.6667 66.3198 16.76C66.1732 16.84 66.0265 16.9467 65.8798 17.08C65.7465 17.2133 65.6198 17.3733 65.4998 17.56V19.38C65.6198 19.6867 65.7798 19.9667 65.9798 20.22C66.1932 20.46 66.4265 20.6533 66.6798 20.8C66.9332 20.9333 67.1932 21 67.4598 21ZM82.1291 24.2C81.3691 24.2 80.7091 24.0533 80.1491 23.76C79.5891 23.4533 79.1557 23.0133 78.8491 22.44V28.26H75.0491V13.48H78.3491V15.06C78.7224 14.4867 79.1824 14.0467 79.7291 13.74C80.2891 13.4333 80.9624 13.28 81.7491 13.28C82.4557 13.28 83.1024 13.4133 83.6891 13.68C84.2757 13.9467 84.7891 14.3267 85.2291 14.82C85.6691 15.3133 86.0091 15.8867 86.2491 16.54C86.4891 17.1933 86.6091 17.9133 86.6091 18.7C86.6091 19.7533 86.4157 20.6933 86.0291 21.52C85.6424 22.3467 85.1091 23 84.4291 23.48C83.7624 23.96 82.9957 24.2 82.1291 24.2ZM80.8091 21C81.0891 21 81.3424 20.94 81.5691 20.82C81.8091 20.7 82.0157 20.5333 82.1891 20.32C82.3624 20.1067 82.4957 19.86 82.5891 19.58C82.6824 19.3 82.7291 19 82.7291 18.68C82.7291 18.3467 82.6757 18.0467 82.5691 17.78C82.4757 17.5133 82.3357 17.2867 82.1491 17.1C81.9624 16.9 81.7424 16.7467 81.4891 16.64C81.2357 16.5333 80.9557 16.48 80.6491 16.48C80.4757 16.48 80.3024 16.5067 80.1291 16.56C79.9691 16.6 79.8157 16.6667 79.6691 16.76C79.5224 16.84 79.3757 16.9467 79.2291 17.08C79.0957 17.2133 78.9691 17.3733 78.8491 17.56V19.38C78.9691 19.6867 79.1291 19.9667 79.3291 20.22C79.5424 20.46 79.7757 20.6533 80.0291 20.8C80.2824 20.9333 80.5424 21 80.8091 21ZM88.3183 9.4H92.1183V19.82C92.1183 20.2067 92.1983 20.5067 92.3583 20.72C92.5316 20.92 92.7783 21.02 93.0983 21.02C93.2583 21.02 93.4316 20.9933 93.6183 20.94C93.8049 20.8867 93.9783 20.8133 94.1383 20.72L94.6183 23.52C94.1649 23.7333 93.6516 23.9 93.0783 24.02C92.5183 24.14 91.9849 24.2 91.4783 24.2C90.4649 24.2 89.6849 23.94 89.1383 23.42C88.5916 22.8867 88.3183 22.1333 88.3183 21.16V9.4ZM101.088 24.2C100.168 24.2 99.3477 24.06 98.6277 23.78C97.9077 23.4867 97.301 23.0933 96.8077 22.6C96.3277 22.1067 95.961 21.54 95.7077 20.9C95.4543 20.26 95.3277 19.5867 95.3277 18.88C95.3277 17.8667 95.5477 16.94 95.9877 16.1C96.4277 15.2467 97.0743 14.5667 97.9277 14.06C98.781 13.54 99.8343 13.28 101.088 13.28C102.341 13.28 103.394 13.5333 104.248 14.04C105.101 14.5467 105.748 15.2133 106.188 16.04C106.628 16.8667 106.848 17.7667 106.848 18.74C106.848 18.94 106.834 19.1467 106.808 19.36C106.794 19.56 106.774 19.74 106.748 19.9H99.3677C99.3943 20.2733 99.4943 20.58 99.6677 20.82C99.8543 21.0467 100.081 21.2133 100.348 21.32C100.628 21.4267 100.914 21.48 101.208 21.48C101.621 21.48 102.008 21.3867 102.368 21.2C102.741 21.0133 102.988 20.7533 103.108 20.42L106.328 21.34C106.048 21.9 105.654 22.3933 105.148 22.82C104.654 23.2467 104.068 23.5867 103.388 23.84C102.708 24.08 101.941 24.2 101.088 24.2ZM99.2877 17.62H102.768C102.728 17.2733 102.628 16.98 102.468 16.74C102.321 16.5 102.121 16.3133 101.868 16.18C101.628 16.0467 101.348 15.98 101.028 15.98C100.708 15.98 100.421 16.0467 100.168 16.18C99.9277 16.3133 99.7277 16.5 99.5677 16.74C99.421 16.98 99.3277 17.2733 99.2877 17.62Z" fill="#7A9C91"/>
<path fill-rule="evenodd" clip-rule="evenodd" d="M20.1508 13.0239C28.7498 10.6608 31.6497 11.8391 35.8901 16.3686C40.7044 21.5111 44.6201 37.6117 30.4581 48.6697C28.2717 49.7941 25.6429 48.9071 23.3487 48.133C22.1561 47.7306 21.0539 47.3587 20.1514 47.3158C19.2486 47.3585 18.1461 47.7305 16.953 48.1331C14.6589 48.9071 12.03 49.7941 9.84365 48.6697C-4.31841 37.6117 -0.402685 21.5112 4.41162 16.3686C8.65201 11.8391 11.5519 10.6608 20.1508 13.0239Z" fill="#7DCA89"/>
<path d="M20.7609 9.11803C20.6777 6.3285 22.3837 0.599542 29.8732 0C29.9565 3.03934 28.2505 9.11803 20.7609 9.11803Z" fill="#7DCA89"/>
<path fill-rule="evenodd" clip-rule="evenodd" d="M7.92951 13.2608C7.35269 13.774 6.76911 14.3575 6.15765 15.0106C1.34334 20.1532 -2.57238 36.2537 11.5897 47.3118C13.8803 48.4898 15.8848 48.0452 17.7509 47.6313C18.6328 47.4356 19.4839 47.2469 20.3197 47.2395V47.2914C19.3873 47.2914 18.2213 47.6849 16.953 48.1128C14.6589 48.8869 12.03 49.7739 9.84365 48.6494C-4.31841 37.5914 -0.402686 21.4909 4.41162 16.3483C5.63969 15.0365 6.75532 14.0058 7.92951 13.2608Z" fill="#7A9C91"/>
<path fill-rule="evenodd" clip-rule="evenodd" d="M31.9878 18.8252C32.0039 18.775 32.0186 18.7242 32.0321 18.6728C32.5618 16.6471 30.8124 14.4352 28.1248 13.7324C25.4372 13.0296 22.829 14.1021 22.2993 16.1278C22.2731 16.228 22.2524 16.3286 22.2372 16.4295C23.5678 15.222 25.4204 14.617 27.3286 14.9442C29.541 15.3235 31.2653 16.8594 31.9878 18.8252Z" fill="#94E1A0"/>
</svg>
